<mxfile host="app.diagrams.net" modified="2023-05-23T04:39:27.354Z" agent="Mozilla/5.0 (Macintosh; Intel Mac OS X 10_15_7) AppleWebKit/605.1.15 (KHTML, like Gecko) Version/16.3 Safari/605.1.15" etag="4VrMpeKtgM69TPqy9Row" version="21.3.2" type="github" pages="5">
  <diagram name="Page-1" id="GeoiC5GZinhgcQ--g_zP">
    <mxGraphModel dx="794" dy="529" grid="1" gridSize="10" guides="1" tooltips="1" connect="1" arrows="1" fold="1" page="1" pageScale="1" pageWidth="827" pageHeight="1169" math="0" shadow="0">
      <root>
        <mxCell id="0" />
        <mxCell id="1" parent="0" />
        <mxCell id="OTa7TtB-6_GBN5F2E-vT-1" value="Library Vs Framework:&lt;br&gt;&lt;br&gt;library : it will hold the functionalities . &amp;nbsp;so that we can use them. (DLL)&lt;br&gt;&lt;br&gt;Framework : they are the pre fabricated block of codes which performs all action in synchornized way to build an application.&lt;br&gt;&lt;br&gt;&lt;br&gt;React: it&#39;s a library. &amp;nbsp;==&amp;gt; why they preferred library way ? why not framework based approach?&lt;br&gt;&quot;Hello World&quot; ==&amp;gt;&amp;nbsp;" style="rounded=1;whiteSpace=wrap;html=1;fontSize=20;" parent="1" vertex="1">
          <mxGeometry x="120" y="150" width="600" height="300" as="geometry" />
        </mxCell>
        <mxCell id="OTa7TtB-6_GBN5F2E-vT-2" value="React : -&amp;nbsp;&lt;br&gt;1. it is an open source lib.&lt;br&gt;2. VDOM : (Virtual DOM) : it is a replica of your DOM.&lt;br&gt;DOM from JS : Document Object Model:&lt;br&gt;any HTML page : will have its DOM tree.&lt;br&gt;we can manipulate the HTML page to have runtime interaction using DOM object from JS.&lt;br&gt;3. Component based approach :&amp;nbsp;&lt;br&gt;" style="rounded=1;whiteSpace=wrap;html=1;fontSize=20;" parent="1" vertex="1">
          <mxGeometry x="130" y="540" width="590" height="290" as="geometry" />
        </mxCell>
        <mxCell id="OTa7TtB-6_GBN5F2E-vT-3" value="Component : &amp;nbsp;it can hold unit amount of UI but we should take care that UI part should not split into multiple one.&lt;br&gt;&lt;br&gt;There are 2 types of components :&amp;nbsp;&lt;br&gt;1. smart : are capable of doing some processing based on rest call.&lt;br&gt;it will take care of UI based business logics .&lt;br&gt;2. dumb : they are just used to render the information.&lt;br&gt;&lt;br&gt;We should have more dumb components and less smart components : to achieve the reusability.&lt;br&gt;" style="rounded=1;whiteSpace=wrap;html=1;fontSize=20;" parent="1" vertex="1">
          <mxGeometry x="170" y="920" width="620" height="300" as="geometry" />
        </mxCell>
        <mxCell id="OTa7TtB-6_GBN5F2E-vT-4" value="npx create-react-app client&lt;br&gt;npx : node package execute&lt;br&gt;npm : node package manager.&lt;br&gt;npm create-react-app 16.8 ==&amp;gt; 17 /18&amp;nbsp;&lt;br&gt;" style="rounded=1;whiteSpace=wrap;html=1;fontSize=20;" parent="1" vertex="1">
          <mxGeometry x="180" y="1340" width="640" height="330" as="geometry" />
        </mxCell>
      </root>
    </mxGraphModel>
  </diagram>
  <diagram id="V1MKg8NB_ZcofPhZBlyy" name="Page-2">
    <mxGraphModel dx="954" dy="647" grid="1" gridSize="10" guides="1" tooltips="1" connect="1" arrows="1" fold="1" page="1" pageScale="1" pageWidth="827" pageHeight="1169" math="0" shadow="0">
      <root>
        <mxCell id="0" />
        <mxCell id="1" parent="0" />
        <mxCell id="rdS8ZeBg-t4y3XwgiinN-1" value="" style="rounded=1;whiteSpace=wrap;html=1;" vertex="1" parent="1">
          <mxGeometry x="110" y="80" width="450" height="470" as="geometry" />
        </mxCell>
        <mxCell id="rdS8ZeBg-t4y3XwgiinN-2" value="Header" style="rounded=1;whiteSpace=wrap;html=1;" vertex="1" parent="1">
          <mxGeometry x="160" y="130" width="350" height="120" as="geometry" />
        </mxCell>
        <mxCell id="rdS8ZeBg-t4y3XwgiinN-3" value="Landing" style="rounded=1;whiteSpace=wrap;html=1;" vertex="1" parent="1">
          <mxGeometry x="160" y="260" width="350" height="120" as="geometry" />
        </mxCell>
        <mxCell id="rdS8ZeBg-t4y3XwgiinN-4" value="Footer" style="rounded=1;whiteSpace=wrap;html=1;" vertex="1" parent="1">
          <mxGeometry x="160" y="400" width="350" height="120" as="geometry" />
        </mxCell>
        <mxCell id="rdS8ZeBg-t4y3XwgiinN-5" value="&lt;div style=&quot;text-align: start; color: rgb(212, 212, 212); background-color: rgb(30, 30, 30); font-family: Menlo, Monaco, &amp;quot;Courier New&amp;quot;, monospace; font-size: 20px; line-height: 30px;&quot;&gt;&lt;div&gt;import &lt;span style=&quot;color: rgb(156, 220, 254);&quot;&gt;React&lt;/span&gt; &lt;span style=&quot;color: rgb(197, 134, 192);&quot;&gt;from&lt;/span&gt; &lt;span style=&quot;color: rgb(206, 145, 120);&quot;&gt;&quot;react&quot;&lt;/span&gt;;&lt;/div&gt;&lt;br&gt;&lt;div&gt;&lt;span style=&quot;color: rgb(86, 156, 214);&quot;&gt;const&lt;/span&gt; &lt;span style=&quot;color: rgb(220, 220, 170);&quot;&gt;Footer&lt;/span&gt; = () &lt;span style=&quot;color: rgb(86, 156, 214);&quot;&gt;=&amp;gt;&lt;/span&gt; {&lt;/div&gt;&lt;div&gt;  &lt;span style=&quot;color: rgb(197, 134, 192);&quot;&gt;return&lt;/span&gt; &lt;span style=&quot;color: rgb(128, 128, 128);&quot;&gt;&amp;lt;&lt;/span&gt;&lt;span style=&quot;color: rgb(86, 156, 214);&quot;&gt;div&lt;/span&gt;&lt;span style=&quot;color: rgb(128, 128, 128);&quot;&gt;&amp;gt;&lt;/span&gt;Footer&lt;span style=&quot;color: rgb(128, 128, 128);&quot;&gt;&amp;lt;/&lt;/span&gt;&lt;span style=&quot;color: rgb(86, 156, 214);&quot;&gt;div&lt;/span&gt;&lt;span style=&quot;color: rgb(128, 128, 128);&quot;&gt;&amp;gt;&lt;/span&gt;;&lt;/div&gt;&lt;div&gt;};&lt;/div&gt;&lt;br&gt;&lt;div&gt;&lt;span style=&quot;color: rgb(197, 134, 192);&quot;&gt;export&lt;/span&gt; &lt;span style=&quot;color: rgb(197, 134, 192);&quot;&gt;default&lt;/span&gt; &lt;span style=&quot;color: rgb(220, 220, 170);&quot;&gt;Footer&lt;/span&gt;;&lt;/div&gt;&lt;br&gt;&lt;/div&gt;&lt;div style=&quot;text-align: start; color: rgb(212, 212, 212); background-color: rgb(30, 30, 30); font-family: Menlo, Monaco, &amp;quot;Courier New&amp;quot;, monospace; font-size: 20px; line-height: 30px;&quot;&gt;import : to import React from react package.&lt;/div&gt;&lt;div style=&quot;text-align: start; color: rgb(212, 212, 212); background-color: rgb(30, 30, 30); font-family: Menlo, Monaco, &amp;quot;Courier New&amp;quot;, monospace; font-size: 20px; line-height: 30px;&quot;&gt;it is going to help us to react component for completing the component related work .&lt;/div&gt;&lt;div style=&quot;text-align: start; color: rgb(212, 212, 212); background-color: rgb(30, 30, 30); font-family: Menlo, Monaco, &amp;quot;Courier New&amp;quot;, monospace; font-size: 20px; line-height: 30px;&quot;&gt;&lt;br&gt;&lt;/div&gt;&lt;div style=&quot;text-align: start; color: rgb(212, 212, 212); background-color: rgb(30, 30, 30); font-family: Menlo, Monaco, &amp;quot;Courier New&amp;quot;, monospace; font-size: 20px; line-height: 30px;&quot;&gt;React : this name space will help us to use react related stuff.&lt;/div&gt;&lt;div style=&quot;text-align: start; color: rgb(212, 212, 212); background-color: rgb(30, 30, 30); font-family: Menlo, Monaco, &amp;quot;Courier New&amp;quot;, monospace; font-size: 20px; line-height: 30px;&quot;&gt;react : it is a package from nodeJS.&lt;/div&gt;&lt;div style=&quot;text-align: start; color: rgb(212, 212, 212); background-color: rgb(30, 30, 30); font-family: Menlo, Monaco, &amp;quot;Courier New&amp;quot;, monospace; font-size: 20px; line-height: 30px;&quot;&gt;const : it is fixed or we can&#39;t do any changes.&lt;/div&gt;&lt;div style=&quot;text-align: start; color: rgb(212, 212, 212); background-color: rgb(30, 30, 30); font-family: Menlo, Monaco, &amp;quot;Courier New&amp;quot;, monospace; font-size: 20px; line-height: 30px;&quot;&gt;Footer : name of the component.&lt;/div&gt;&lt;div style=&quot;text-align: start; color: rgb(212, 212, 212); background-color: rgb(30, 30, 30); font-family: Menlo, Monaco, &amp;quot;Courier New&amp;quot;, monospace; font-size: 20px; line-height: 30px;&quot;&gt;()=&amp;gt;{} // it is a lambda expression/ a function.&lt;/div&gt;&lt;div style=&quot;text-align: start; color: rgb(212, 212, 212); background-color: rgb(30, 30, 30); font-family: Menlo, Monaco, &amp;quot;Courier New&amp;quot;, monospace; font-size: 20px; line-height: 30px;&quot;&gt;&lt;br&gt;&lt;/div&gt;&lt;div style=&quot;text-align: start; color: rgb(212, 212, 212); background-color: rgb(30, 30, 30); font-family: Menlo, Monaco, &amp;quot;Courier New&amp;quot;, monospace; font-size: 20px; line-height: 30px;&quot;&gt;return &amp;lt;div&amp;gt;&amp;lt;/div&amp;gt; this statement will return the UI to the caller.&lt;/div&gt;&lt;div style=&quot;text-align: start; color: rgb(212, 212, 212); background-color: rgb(30, 30, 30); font-family: Menlo, Monaco, &amp;quot;Courier New&amp;quot;, monospace; font-size: 20px; line-height: 30px;&quot;&gt;&lt;br&gt;&lt;/div&gt;&lt;div style=&quot;text-align: start; color: rgb(212, 212, 212); background-color: rgb(30, 30, 30); font-family: Menlo, Monaco, &amp;quot;Courier New&amp;quot;, monospace; font-size: 20px; line-height: 30px;&quot;&gt;export : will give the right to react to consume it / use it outside the current file.&lt;/div&gt;&lt;div style=&quot;text-align: start; color: rgb(212, 212, 212); background-color: rgb(30, 30, 30); font-family: Menlo, Monaco, &amp;quot;Courier New&amp;quot;, monospace; font-size: 20px; line-height: 30px;&quot;&gt;&lt;br&gt;&lt;/div&gt;&lt;div style=&quot;text-align: start; color: rgb(212, 212, 212); background-color: rgb(30, 30, 30); font-family: Menlo, Monaco, &amp;quot;Courier New&amp;quot;, monospace; font-size: 20px; line-height: 30px;&quot;&gt;default : it will use the default name.&lt;/div&gt;&lt;div style=&quot;text-align: start; color: rgb(212, 212, 212); background-color: rgb(30, 30, 30); font-family: Menlo, Monaco, &amp;quot;Courier New&amp;quot;, monospace; font-size: 20px; line-height: 30px;&quot;&gt;Footer : the component which we want to export.&lt;/div&gt;&lt;div style=&quot;text-align: start; color: rgb(212, 212, 212); background-color: rgb(30, 30, 30); font-family: Menlo, Monaco, &amp;quot;Courier New&amp;quot;, monospace; font-size: 20px; line-height: 30px;&quot;&gt;&lt;br&gt;&lt;/div&gt;&lt;div style=&quot;text-align: start; color: rgb(212, 212, 212); background-color: rgb(30, 30, 30); font-family: Menlo, Monaco, &amp;quot;Courier New&amp;quot;, monospace; font-size: 20px; line-height: 30px;&quot;&gt;&lt;br&gt;&lt;/div&gt;&lt;div style=&quot;text-align: start; color: rgb(212, 212, 212); background-color: rgb(30, 30, 30); font-family: Menlo, Monaco, &amp;quot;Courier New&amp;quot;, monospace; font-size: 20px; line-height: 30px;&quot;&gt;&lt;br&gt;&lt;/div&gt;" style="rounded=1;whiteSpace=wrap;html=1;" vertex="1" parent="1">
          <mxGeometry x="100" y="630" width="590" height="430" as="geometry" />
        </mxCell>
      </root>
    </mxGraphModel>
  </diagram>
  <diagram id="PFWGYaHayJQP_EhR4A4O" name="Page-3">
    <mxGraphModel dx="794" dy="1670" grid="1" gridSize="10" guides="1" tooltips="1" connect="1" arrows="1" fold="1" page="1" pageScale="1" pageWidth="827" pageHeight="1169" math="0" shadow="0">
      <root>
        <mxCell id="0" />
        <mxCell id="1" parent="0" />
        <mxCell id="4y_M-l4kbIeaZ5xJmNFZ-1" value="&lt;div style=&quot;font-style: normal; font-variant-caps: normal; font-weight: normal; letter-spacing: normal; text-align: start; text-indent: 0px; text-transform: none; word-spacing: 0px; -webkit-text-stroke-width: 0px; text-decoration: none; color: rgb(204, 204, 204); background-color: rgb(31, 31, 31); font-family: Menlo, Monaco, &amp;quot;Courier New&amp;quot;, monospace; font-size: 20px; line-height: 30px;&quot;&gt;&lt;div&gt;&lt;span style=&quot;color: rgb(197, 134, 192);&quot;&gt;import&lt;/span&gt;&lt;span style=&quot;color: rgb(204, 204, 204);&quot;&gt; { &lt;/span&gt;&lt;span style=&quot;color: rgb(156, 220, 254);&quot;&gt;StatusBar&lt;/span&gt;&lt;span style=&quot;color: rgb(204, 204, 204);&quot;&gt; } &lt;/span&gt;&lt;span style=&quot;color: rgb(197, 134, 192);&quot;&gt;from&lt;/span&gt;&lt;span style=&quot;color: rgb(204, 204, 204);&quot;&gt; &lt;/span&gt;&lt;span style=&quot;color: rgb(206, 145, 120);&quot;&gt;&quot;expo-status-bar&quot;&lt;/span&gt;&lt;span style=&quot;color: rgb(204, 204, 204);&quot;&gt;;&lt;/span&gt;&lt;/div&gt;&lt;div&gt;&lt;span style=&quot;color: rgb(197, 134, 192);&quot;&gt;import&lt;/span&gt;&lt;span style=&quot;color: rgb(204, 204, 204);&quot;&gt; { &lt;/span&gt;&lt;span style=&quot;color: rgb(156, 220, 254);&quot;&gt;StyleSheet&lt;/span&gt;&lt;span style=&quot;color: rgb(204, 204, 204);&quot;&gt;, &lt;/span&gt;&lt;span style=&quot;color: rgb(156, 220, 254);&quot;&gt;Text&lt;/span&gt;&lt;span style=&quot;color: rgb(204, 204, 204);&quot;&gt;, &lt;/span&gt;&lt;span style=&quot;color: rgb(156, 220, 254);&quot;&gt;View&lt;/span&gt;&lt;span style=&quot;color: rgb(204, 204, 204);&quot;&gt; } &lt;/span&gt;&lt;span style=&quot;color: rgb(197, 134, 192);&quot;&gt;from&lt;/span&gt;&lt;span style=&quot;color: rgb(204, 204, 204);&quot;&gt; &lt;/span&gt;&lt;span style=&quot;color: rgb(206, 145, 120);&quot;&gt;&quot;react-native&quot;&lt;/span&gt;&lt;span style=&quot;color: rgb(204, 204, 204);&quot;&gt;;&lt;/span&gt;&lt;/div&gt;&lt;br&gt;&lt;div&gt;&lt;span style=&quot;color: rgb(197, 134, 192);&quot;&gt;export&lt;/span&gt;&lt;span style=&quot;color: rgb(204, 204, 204);&quot;&gt; &lt;/span&gt;&lt;span style=&quot;color: rgb(197, 134, 192);&quot;&gt;default&lt;/span&gt;&lt;span style=&quot;color: rgb(204, 204, 204);&quot;&gt; &lt;/span&gt;&lt;span style=&quot;color: rgb(86, 156, 214);&quot;&gt;function&lt;/span&gt;&lt;span style=&quot;color: rgb(204, 204, 204);&quot;&gt; &lt;/span&gt;&lt;span style=&quot;color: rgb(220, 220, 170);&quot;&gt;App&lt;/span&gt;&lt;span style=&quot;color: rgb(204, 204, 204);&quot;&gt;() {&lt;/span&gt;&lt;/div&gt;&lt;div&gt;&lt;span style=&quot;color: rgb(204, 204, 204);&quot;&gt;  &lt;/span&gt;&lt;span style=&quot;color: rgb(197, 134, 192);&quot;&gt;return&lt;/span&gt;&lt;span style=&quot;color: rgb(204, 204, 204);&quot;&gt; (&lt;/span&gt;&lt;/div&gt;&lt;div&gt;&lt;span style=&quot;color: rgb(204, 204, 204);&quot;&gt;    &lt;/span&gt;&lt;span style=&quot;color: rgb(128, 128, 128);&quot;&gt;&amp;lt;&lt;/span&gt;&lt;span style=&quot;color: rgb(78, 201, 176);&quot;&gt;View&lt;/span&gt;&lt;span style=&quot;color: rgb(204, 204, 204);&quot;&gt; &lt;/span&gt;&lt;span style=&quot;color: rgb(156, 220, 254);&quot;&gt;style&lt;/span&gt;&lt;span style=&quot;color: rgb(212, 212, 212);&quot;&gt;=&lt;/span&gt;&lt;span style=&quot;color: rgb(86, 156, 214);&quot;&gt;{&lt;/span&gt;&lt;span style=&quot;color: rgb(79, 193, 255);&quot;&gt;styles&lt;/span&gt;&lt;span style=&quot;color: rgb(212, 212, 212);&quot;&gt;.&lt;/span&gt;&lt;span style=&quot;color: rgb(156, 220, 254);&quot;&gt;container&lt;/span&gt;&lt;span style=&quot;color: rgb(86, 156, 214);&quot;&gt;}&lt;/span&gt;&lt;span style=&quot;color: rgb(128, 128, 128);&quot;&gt;&amp;gt;&lt;/span&gt;&lt;/div&gt;&lt;div&gt;&lt;span style=&quot;color: rgb(204, 204, 204);&quot;&gt;      &lt;/span&gt;&lt;span style=&quot;color: rgb(128, 128, 128);&quot;&gt;&amp;lt;&lt;/span&gt;&lt;span style=&quot;color: rgb(78, 201, 176);&quot;&gt;Text&lt;/span&gt;&lt;span style=&quot;color: rgb(128, 128, 128);&quot;&gt;&amp;gt;&lt;/span&gt;&lt;span style=&quot;color: rgb(204, 204, 204);&quot;&gt;Hello World!&lt;/span&gt;&lt;span style=&quot;color: rgb(128, 128, 128);&quot;&gt;&amp;lt;/&lt;/span&gt;&lt;span style=&quot;color: rgb(78, 201, 176);&quot;&gt;Text&lt;/span&gt;&lt;span style=&quot;color: rgb(128, 128, 128);&quot;&gt;&amp;gt;&lt;/span&gt;&lt;/div&gt;&lt;div&gt;&lt;span style=&quot;color: rgb(204, 204, 204);&quot;&gt;      &lt;/span&gt;&lt;span style=&quot;color: rgb(128, 128, 128);&quot;&gt;&amp;lt;&lt;/span&gt;&lt;span style=&quot;color: rgb(78, 201, 176);&quot;&gt;StatusBar&lt;/span&gt;&lt;span style=&quot;color: rgb(204, 204, 204);&quot;&gt; &lt;/span&gt;&lt;span style=&quot;color: rgb(156, 220, 254);&quot;&gt;style&lt;/span&gt;&lt;span style=&quot;color: rgb(212, 212, 212);&quot;&gt;=&lt;/span&gt;&lt;span style=&quot;color: rgb(206, 145, 120);&quot;&gt;&quot;auto&quot;&lt;/span&gt;&lt;span style=&quot;color: rgb(204, 204, 204);&quot;&gt; &lt;/span&gt;&lt;span style=&quot;color: rgb(128, 128, 128);&quot;&gt;/&amp;gt;&lt;/span&gt;&lt;/div&gt;&lt;div&gt;&lt;span style=&quot;color: rgb(204, 204, 204);&quot;&gt;    &lt;/span&gt;&lt;span style=&quot;color: rgb(128, 128, 128);&quot;&gt;&amp;lt;/&lt;/span&gt;&lt;span style=&quot;color: rgb(78, 201, 176);&quot;&gt;View&lt;/span&gt;&lt;span style=&quot;color: rgb(128, 128, 128);&quot;&gt;&amp;gt;&lt;/span&gt;&lt;/div&gt;&lt;div&gt;&lt;span style=&quot;color: rgb(204, 204, 204);&quot;&gt;  );&lt;/span&gt;&lt;/div&gt;&lt;div&gt;&lt;span style=&quot;color: rgb(204, 204, 204);&quot;&gt;}&lt;/span&gt;&lt;/div&gt;&lt;br&gt;&lt;div&gt;&lt;span style=&quot;color: rgb(86, 156, 214);&quot;&gt;const&lt;/span&gt;&lt;span style=&quot;color: rgb(204, 204, 204);&quot;&gt; &lt;/span&gt;&lt;span style=&quot;color: rgb(79, 193, 255);&quot;&gt;styles&lt;/span&gt;&lt;span style=&quot;color: rgb(204, 204, 204);&quot;&gt; &lt;/span&gt;&lt;span style=&quot;color: rgb(212, 212, 212);&quot;&gt;=&lt;/span&gt;&lt;span style=&quot;color: rgb(204, 204, 204);&quot;&gt; &lt;/span&gt;&lt;span style=&quot;color: rgb(78, 201, 176);&quot;&gt;StyleSheet&lt;/span&gt;&lt;span style=&quot;color: rgb(204, 204, 204);&quot;&gt;.&lt;/span&gt;&lt;span style=&quot;color: rgb(220, 220, 170);&quot;&gt;create&lt;/span&gt;&lt;span style=&quot;color: rgb(204, 204, 204);&quot;&gt;({&lt;/span&gt;&lt;/div&gt;&lt;div&gt;&lt;span style=&quot;color: rgb(204, 204, 204);&quot;&gt;  &lt;/span&gt;&lt;span style=&quot;color: rgb(156, 220, 254);&quot;&gt;container&lt;/span&gt;&lt;span style=&quot;color: rgb(156, 220, 254);&quot;&gt;:&lt;/span&gt;&lt;span style=&quot;color: rgb(204, 204, 204);&quot;&gt; {&lt;/span&gt;&lt;/div&gt;&lt;div&gt;&lt;span style=&quot;color: rgb(204, 204, 204);&quot;&gt;    &lt;/span&gt;&lt;span style=&quot;color: rgb(156, 220, 254);&quot;&gt;flex&lt;/span&gt;&lt;span style=&quot;color: rgb(156, 220, 254);&quot;&gt;:&lt;/span&gt;&lt;span style=&quot;color: rgb(204, 204, 204);&quot;&gt; &lt;/span&gt;&lt;span style=&quot;color: rgb(181, 206, 168);&quot;&gt;1&lt;/span&gt;&lt;span style=&quot;color: rgb(204, 204, 204);&quot;&gt;,&lt;/span&gt;&lt;/div&gt;&lt;div&gt;&lt;span style=&quot;color: rgb(204, 204, 204);&quot;&gt;    &lt;/span&gt;&lt;span style=&quot;color: rgb(156, 220, 254);&quot;&gt;backgroundColor&lt;/span&gt;&lt;span style=&quot;color: rgb(156, 220, 254);&quot;&gt;:&lt;/span&gt;&lt;span style=&quot;color: rgb(204, 204, 204);&quot;&gt; &lt;/span&gt;&lt;span style=&quot;color: rgb(206, 145, 120);&quot;&gt;&quot;#fff&quot;&lt;/span&gt;&lt;span style=&quot;color: rgb(204, 204, 204);&quot;&gt;,&lt;/span&gt;&lt;/div&gt;&lt;div&gt;&lt;span style=&quot;color: rgb(204, 204, 204);&quot;&gt;    &lt;/span&gt;&lt;span style=&quot;color: rgb(156, 220, 254);&quot;&gt;alignItems&lt;/span&gt;&lt;span style=&quot;color: rgb(156, 220, 254);&quot;&gt;:&lt;/span&gt;&lt;span style=&quot;color: rgb(204, 204, 204);&quot;&gt; &lt;/span&gt;&lt;span style=&quot;color: rgb(206, 145, 120);&quot;&gt;&quot;center&quot;&lt;/span&gt;&lt;span style=&quot;color: rgb(204, 204, 204);&quot;&gt;,&lt;/span&gt;&lt;/div&gt;&lt;div&gt;&lt;span style=&quot;color: rgb(204, 204, 204);&quot;&gt;    &lt;/span&gt;&lt;span style=&quot;color: rgb(156, 220, 254);&quot;&gt;justifyContent&lt;/span&gt;&lt;span style=&quot;color: rgb(156, 220, 254);&quot;&gt;:&lt;/span&gt;&lt;span style=&quot;color: rgb(204, 204, 204);&quot;&gt; &lt;/span&gt;&lt;span style=&quot;color: rgb(206, 145, 120);&quot;&gt;&quot;center&quot;&lt;/span&gt;&lt;span style=&quot;color: rgb(204, 204, 204);&quot;&gt;,&lt;/span&gt;&lt;/div&gt;&lt;div&gt;&lt;span style=&quot;color: rgb(204, 204, 204);&quot;&gt;  },&lt;/span&gt;&lt;/div&gt;&lt;div&gt;&lt;span style=&quot;color: rgb(204, 204, 204);&quot;&gt;});&lt;/span&gt;&lt;/div&gt;&lt;br&gt;&lt;/div&gt;&lt;br class=&quot;Apple-interchange-newline&quot;&gt;" style="rounded=1;whiteSpace=wrap;html=1;" vertex="1" parent="1">
          <mxGeometry x="61" y="28" width="580" height="500" as="geometry" />
        </mxCell>
      </root>
    </mxGraphModel>
  </diagram>
  <diagram id="OAa5wGk1vxrUxsuY-tlB" name="Page-4">
    <mxGraphModel dx="794" dy="501" grid="1" gridSize="10" guides="1" tooltips="1" connect="1" arrows="1" fold="1" page="1" pageScale="1" pageWidth="827" pageHeight="1169" math="0" shadow="0">
      <root>
        <mxCell id="0" />
        <mxCell id="1" parent="0" />
        <mxCell id="gEyXBW97EaLcVl0X51ao-1" value="" style="rounded=1;whiteSpace=wrap;html=1;" vertex="1" parent="1">
          <mxGeometry x="180" y="450" width="240" height="400" as="geometry" />
        </mxCell>
        <mxCell id="gEyXBW97EaLcVl0X51ao-2" value="UserName" style="rounded=1;whiteSpace=wrap;html=1;" vertex="1" parent="1">
          <mxGeometry x="240" y="580" width="130" height="40" as="geometry" />
        </mxCell>
        <mxCell id="gEyXBW97EaLcVl0X51ao-4" value="" style="rounded=1;whiteSpace=wrap;html=1;" vertex="1" parent="1">
          <mxGeometry x="230" y="700" width="130" height="40" as="geometry" />
        </mxCell>
        <mxCell id="gEyXBW97EaLcVl0X51ao-5" value="password" style="text;html=1;strokeColor=none;fillColor=none;align=center;verticalAlign=middle;whiteSpace=wrap;rounded=0;" vertex="1" parent="1">
          <mxGeometry x="200" y="660" width="60" height="30" as="geometry" />
        </mxCell>
        <mxCell id="gEyXBW97EaLcVl0X51ao-6" value="Signing" style="rounded=1;whiteSpace=wrap;html=1;" vertex="1" parent="1">
          <mxGeometry x="240" y="770" width="90" height="30" as="geometry" />
        </mxCell>
      </root>
    </mxGraphModel>
  </diagram>
  <diagram id="xImSi0MSAGlcOU-dlGfM" name="Page-5">
    <mxGraphModel dx="794" dy="501" grid="1" gridSize="10" guides="1" tooltips="1" connect="1" arrows="1" fold="1" page="1" pageScale="1" pageWidth="827" pageHeight="1169" math="0" shadow="0">
      <root>
        <mxCell id="0" />
        <mxCell id="1" parent="0" />
        <mxCell id="jF-xhlhTj3F_VSVowYlC-1" value="" style="rounded=1;whiteSpace=wrap;html=1;" vertex="1" parent="1">
          <mxGeometry x="170" y="80" width="300" height="440" as="geometry" />
        </mxCell>
        <mxCell id="jF-xhlhTj3F_VSVowYlC-3" value="" style="strokeWidth=1;html=1;shadow=0;dashed=0;shape=mxgraph.android.rrect;rSize=0;fillColor=#444444;strokeColor=none;" vertex="1" parent="1">
          <mxGeometry x="180" y="460" width="270" height="30" as="geometry" />
        </mxCell>
        <mxCell id="jF-xhlhTj3F_VSVowYlC-4" value="recent expenses" style="strokeWidth=1;html=1;shadow=0;dashed=0;shape=mxgraph.android.anchor;fontStyle=1;fontColor=#ffffff;" vertex="1" parent="jF-xhlhTj3F_VSVowYlC-3">
          <mxGeometry width="109.6875" height="30" as="geometry" />
        </mxCell>
        <mxCell id="jF-xhlhTj3F_VSVowYlC-5" value="all expenses" style="strokeWidth=1;html=1;shadow=0;dashed=0;shape=mxgraph.android.rrect;rSize=0;fontStyle=1;fillColor=#0099cc;strokeColor=none;fontColor=#ffffff;" vertex="1" parent="jF-xhlhTj3F_VSVowYlC-3">
          <mxGeometry x="109.6875" width="92.8125" height="30" as="geometry" />
        </mxCell>
        <mxCell id="jF-xhlhTj3F_VSVowYlC-6" value="" style="strokeWidth=1;html=1;shadow=0;dashed=0;shape=mxgraph.android.rrect;rSize=0;fillColor=#33b5e5;strokeColor=none;" vertex="1" parent="jF-xhlhTj3F_VSVowYlC-5">
          <mxGeometry y="27" width="92.8125" height="3" as="geometry" />
        </mxCell>
      </root>
    </mxGraphModel>
  </diagram>
</mxfile>
